<?xml version="1.0" encoding="utf-8"?>
<!-- Generator: Adobe Illustrator 24.1.1, SVG Export Plug-In . SVG Version: 6.00 Build 0)  -->
<svg version="1.1" id="Layer_1" xmlns="http://www.w3.org/2000/svg" xmlns:xlink="http://www.w3.org/1999/xlink" x="0px" y="0px"
	 viewBox="0 0 512 512" style="enable-background:new 0 0 512 512;" xml:space="preserve">
<g>
	<path d="M380.2,119.7C351.7,71.9,312.6,33.1,266,5.7l-1.5-0.8L256,0l-8.5,4.9C151.3,61.2,87.7,164,87.7,281.6v0.1
		c0,3.7,0.1,7.4,0.2,11c1.7,49.7,20.7,91.5,55,121c26.2,22.5,59.9,36.3,96.1,39.5V512h34V240.3h-34v178.8
		c-57.4-6.7-114.5-47.2-117.2-127.5c-0.1-3.3-0.2-6.6-0.2-9.9c0.2-101.6,53.3-190.9,133.2-241.6l1.2-0.7
		c81.1,51.5,134.1,140.7,134.4,242.3v0c0,3.3-0.1,6.6-0.2,9.9C388,355.9,351,394.7,307,411.1V447c24-6.9,44.8-18.4,62.4-33.4
		l-0.2,0.2c34.3-29.4,53.3-71.3,55-121c0.1-3.7,0.2-7.4,0.2-11v-0.2c0-59.7-16.4-115.6-44.9-163.4L380.2,119.7L380.2,119.7z"/>
</g>
</svg>
